<?xml version="1.0" encoding="utf-8"?>
<!-- Generator: Adobe Illustrator 18.1.1, SVG Export Plug-In . SVG Version: 6.00 Build 0)  -->
<!DOCTYPE svg PUBLIC "-//W3C//DTD SVG 1.1//EN" "http://www.w3.org/Graphics/SVG/1.1/DTD/svg11.dtd">
<svg version="1.1" id="Layer_1" xmlns="http://www.w3.org/2000/svg" xmlns:xlink="http://www.w3.org/1999/xlink" x="0px" y="0px"
	 width="200px" height="69.4px" viewBox="0 0 200 69.4" enable-background="new 0 0 200 69.4" xml:space="preserve">
<g>
	<image overflow="visible" width="95" height="30" xlink:href="8F07A2A3870EF939.png"  transform="matrix(1 0 0 1 49 0)">
	</image>
	<path fill="#FFFFFF" d="M111.7,60.9c0-0.5,0-0.9,0-1.3c0-0.4,0-0.7,0-0.9c0-0.2,0-0.4,0-0.6c0-0.2,0-0.3,0-0.4c0-0.1,0-0.2,0-0.3
		c0-0.3,0.1-0.5,0.2-0.7c0.1-0.1,0.2-0.2,0.5-0.3c0.1,0,0.2,0,0.3,0c0.1,0,0.2,0,0.3,0c0.1,0,0.2,0,0.2,0c0,0,0.1-0.1,0.1-0.1
		c0-0.1,0-0.1-0.1-0.1c-0.1,0-0.1,0-0.3,0c-0.2,0-0.4,0-0.6,0c-0.2,0-0.4,0-0.7,0c-0.2,0-0.4,0-0.6,0c-0.2,0-0.3,0-0.4,0
		c-0.1,0-0.3,0-0.4,0c-0.2,0-0.4,0-0.6,0c-0.2,0-0.4,0-0.6,0c-0.2,0-0.4,0-0.6,0c-0.1,0-0.2,0-0.3,0c-0.1,0-0.1,0.1-0.1,0.1
		c0,0.1,0,0.1,0.1,0.1c0,0,0.1,0,0.2,0c0.1,0,0.2,0,0.3,0c0.1,0,0.2,0,0.2,0c0.2,0,0.3,0.1,0.4,0.2c0.1,0.1,0.2,0.2,0.2,0.3
		c0,0.1,0.1,0.3,0.1,0.5c0,0.1,0,0.2,0,0.3c0,0.1,0,0.3,0,0.4c0,0.2,0,0.4,0,0.6c0,0.2,0,0.5,0,0.9c0,0.4,0,0.8,0,1.3v2.9
		c0,0.5,0,1,0,1.4c0,0.4,0,0.9,0,1.2c0,0.4,0,0.7-0.1,0.9c0,0.2,0,0.3-0.1,0.4c0,0.1-0.1,0.2-0.1,0.3c-0.1,0.1-0.1,0.1-0.3,0.2
		c-0.1,0-0.2,0-0.3,0c-0.1,0-0.2,0-0.3,0c-0.1,0-0.2,0-0.2,0c0,0-0.1,0.1-0.1,0.1c0,0.1,0,0.1,0.1,0.1c0.1,0,0.1,0,0.2,0
		c0.2,0,0.4,0,0.6,0c0.2,0,0.4,0,0.6,0c0.2,0,0.4,0,0.6,0c0.2,0,0.3,0,0.4,0c0.2,0,0.4,0,0.7,0c0.2,0,0.4,0,0.7,0c0.2,0,0.5,0,0.7,0
		c0.4,0,0.8,0,1.2,0c0.5,0,1,0,1.6,0c0.2,0,0.4,0,0.5,0c0.1,0,0.2,0,0.3-0.1c0.1,0,0.1-0.1,0.2-0.1c0-0.1,0.1-0.1,0.1-0.2
		c0-0.1,0.1-0.2,0.1-0.4c0-0.1,0-0.3,0.1-0.5c0-0.2,0-0.3,0.1-0.5c0-0.1,0-0.3,0-0.4c0-0.1,0-0.2,0-0.2c0-0.1,0-0.2,0-0.2
		c0,0-0.1-0.1-0.1-0.1c-0.1,0-0.1,0-0.1,0.1c0,0,0,0.1,0,0.2c0,0.1,0,0.2-0.1,0.4c0,0.1-0.1,0.2-0.2,0.4c-0.1,0.1-0.1,0.2-0.2,0.3
		c-0.1,0.1-0.3,0.3-0.5,0.3c-0.2,0.1-0.4,0.1-0.6,0.1c-0.2,0-0.5,0-0.8,0c-0.4,0-0.8,0-1,0c-0.3,0-0.5-0.1-0.6-0.1
		c-0.1-0.1-0.3-0.1-0.4-0.2c-0.1-0.1-0.2-0.3-0.2-0.6c0-0.3-0.1-0.7-0.1-1.2c0-0.5,0-1.1,0-1.8V60.9L111.7,60.9z M63.3,63.4
		c0,0.8,0.1,1.5,0.2,2c0.1,0.6,0.3,1,0.5,1.4c0.2,0.4,0.5,0.7,0.8,0.9c0.3,0.3,0.6,0.5,1,0.6c0.3,0.2,0.7,0.3,1,0.3
		c0.3,0.1,0.6,0.1,0.9,0.1c0.3,0,0.6,0,0.8,0c0.4,0,0.7,0,1.1-0.1c0.4-0.1,0.8-0.2,1.2-0.3c0.4-0.2,0.8-0.4,1.2-0.8
		c0.3-0.3,0.6-0.6,0.8-1c0.2-0.4,0.4-0.8,0.5-1.2c0.1-0.4,0.2-0.9,0.2-1.4c0-0.5,0.1-0.9,0-1.4v-1.8c0-0.5,0-0.9,0-1.3
		c0-0.4,0-0.7,0-0.9c0-0.2,0-0.4,0-0.6c0-0.2,0-0.3,0-0.4c0-0.1,0-0.2,0-0.3c0-0.3,0.1-0.5,0.2-0.7c0.1-0.1,0.2-0.2,0.5-0.3
		c0.1,0,0.2,0,0.2,0c0.1,0,0.1,0,0.2,0c0.1,0,0.2,0,0.2,0c0,0,0.1-0.1,0.1-0.1c0-0.1,0-0.1-0.1-0.1c-0.1,0-0.1,0-0.3,0
		c-0.2,0-0.3,0-0.5,0c-0.2,0-0.4,0-0.6,0c-0.2,0-0.3,0-0.5,0c-0.1,0-0.2,0-0.3,0c0,0-0.1,0-0.2,0c-0.1,0-0.3,0-0.5,0
		c-0.2,0-0.4,0-0.6,0c-0.2,0-0.4,0-0.7,0c-0.1,0-0.2,0-0.3,0c-0.1,0-0.1,0.1-0.1,0.1c0,0.1,0,0.1,0.1,0.1c0,0,0.1,0,0.2,0
		c0.1,0,0.1,0,0.2,0c0.1,0,0.1,0,0.2,0c0.1,0,0.1,0,0.2,0c0.2,0,0.3,0.1,0.4,0.2c0.1,0.1,0.2,0.2,0.2,0.3c0,0.1,0.1,0.3,0.1,0.5
		c0,0.1,0,0.2,0,0.3c0,0.1,0,0.3,0,0.4c0,0.2,0,0.4,0,0.6c0,0.2,0,0.5,0,0.9c0,0.4,0,0.8,0,1.3V63c0,0.4,0,0.8,0,1.2
		c0,0.4-0.1,0.8-0.1,1.1c-0.1,0.4-0.2,0.7-0.3,1c-0.1,0.3-0.3,0.6-0.5,0.8c-0.2,0.2-0.5,0.4-0.7,0.5c-0.3,0.1-0.5,0.2-0.8,0.3
		C69.3,68,69.1,68,68.8,68c-0.2,0-0.4,0-0.6,0c-0.2,0-0.5-0.1-0.7-0.2c-0.2-0.1-0.5-0.2-0.7-0.4c-0.2-0.2-0.4-0.4-0.5-0.6
		c-0.2-0.2-0.3-0.5-0.4-0.8c-0.1-0.3-0.2-0.7-0.3-1.1c-0.1-0.4-0.1-1-0.1-1.6v-2.3c0-0.5,0-0.9,0-1.3c0-0.4,0-0.7,0-0.9
		c0-0.2,0-0.4,0-0.6c0-0.2,0-0.3,0-0.4c0-0.1,0-0.2,0-0.3c0-0.3,0.1-0.5,0.2-0.7c0.1-0.1,0.2-0.2,0.5-0.3c0.1,0,0.2,0,0.2,0
		c0.1,0,0.1,0,0.2,0c0.1,0,0.1,0,0.2,0c0,0,0.1-0.1,0.1-0.1c0-0.1,0-0.1-0.1-0.1c-0.1,0-0.2,0-0.3,0c-0.2,0-0.3,0-0.5,0
		c-0.2,0-0.4,0-0.6,0c-0.2,0-0.4,0-0.5,0c-0.2,0-0.3,0-0.4,0c-0.2,0-0.4,0-0.7,0c-0.3,0-0.6,0-0.9,0c-0.3,0-0.6,0-0.9,0
		c-0.1,0-0.2,0-0.3,0c-0.1,0-0.1,0.1-0.1,0.1c0,0.1,0,0.1,0.1,0.1c0,0,0.1,0,0.2,0c0.1,0,0.2,0,0.4,0c0.1,0,0.2,0,0.3,0
		c0.2,0,0.3,0.1,0.4,0.2c0.1,0.1,0.2,0.2,0.2,0.3c0,0.1,0.1,0.3,0.1,0.5c0,0.1,0,0.2,0,0.3c0,0.1,0,0.3,0,0.4c0,0.2,0,0.4,0,0.6
		c0,0.2,0,0.5,0,0.9c0,0.4,0,0.8,0,1.3V63.4L63.3,63.4z M45.9,68.9c0.3,0,0.6,0,0.9-0.1c0.3,0,0.6-0.1,0.9-0.2
		c0.3-0.1,0.6-0.2,0.9-0.4c0.4-0.3,0.7-0.6,0.9-0.9c0.2-0.3,0.4-0.7,0.5-1c0.1-0.3,0.1-0.7,0.1-1c0-0.4,0-0.8-0.1-1.1
		c-0.1-0.4-0.3-0.7-0.5-1c-0.2-0.3-0.5-0.7-0.8-1c-0.3-0.3-0.8-0.7-1.3-1.1l-0.5-0.3c-0.5-0.3-0.8-0.7-1.1-0.9
		c-0.3-0.3-0.4-0.5-0.5-0.7c-0.1-0.2-0.2-0.5-0.1-0.7c0-0.3,0.1-0.6,0.2-0.9c0.2-0.3,0.4-0.5,0.7-0.6c0.3-0.1,0.6-0.2,1.1-0.2
		c0.4,0,0.7,0,0.9,0.1c0.2,0.1,0.4,0.2,0.6,0.3c0.1,0.1,0.3,0.2,0.3,0.4c0.1,0.1,0.2,0.3,0.3,0.4c0.1,0.1,0.1,0.3,0.1,0.4
		c0,0.1,0,0.2,0,0.3c0,0.1,0,0.2,0,0.2c0,0,0.1,0.1,0.1,0.1c0.1,0,0.1,0,0.1-0.1c0-0.1,0-0.2,0-0.4c0-0.4,0-0.8,0-1
		c0-0.3,0-0.5,0-0.6c0-0.1,0-0.3,0-0.3c0-0.1,0-0.1-0.1-0.1c0,0-0.1-0.1-0.2-0.1C49.3,56.1,49,56,48.7,56c-0.4-0.1-0.8-0.1-1.4-0.1
		c-0.6,0-1.1,0.1-1.6,0.2c-0.5,0.2-0.9,0.4-1.2,0.7c-0.3,0.3-0.6,0.6-0.8,1c-0.2,0.4-0.3,0.8-0.3,1.3c0,0.4,0.1,0.9,0.2,1.3
		c0.2,0.4,0.4,0.8,0.8,1.3c0.4,0.4,0.8,0.9,1.5,1.4l0.8,0.6c0.3,0.3,0.6,0.5,0.8,0.8c0.2,0.2,0.4,0.5,0.5,0.7
		c0.1,0.2,0.2,0.4,0.2,0.6c0,0.2,0.1,0.4,0.1,0.6c0,0.2,0,0.4-0.1,0.7c-0.1,0.2-0.2,0.4-0.4,0.6c-0.2,0.2-0.4,0.3-0.7,0.4
		c-0.3,0.1-0.6,0.2-1,0.2c-0.3,0-0.7-0.1-1-0.2c-0.3-0.1-0.6-0.3-0.8-0.5c-0.2-0.2-0.4-0.6-0.5-1c0-0.1-0.1-0.3-0.1-0.4
		c0-0.2,0-0.3,0-0.4c0-0.1,0-0.1,0-0.2c0-0.1-0.1-0.1-0.1-0.1c-0.1,0-0.1,0-0.1,0.1c0,0.1,0,0.2-0.1,0.3c0,0.1,0,0.2,0,0.3
		c0,0.1,0,0.3,0,0.5c0,0.2,0,0.4,0,0.6c0,0.2,0,0.5,0,0.7c0,0.1,0,0.2,0,0.3c0,0.1,0,0.1,0.1,0.2c0,0,0.1,0.1,0.2,0.1
		c0.4,0.2,0.7,0.3,1.1,0.3C45,68.9,45.4,68.9,45.9,68.9L45.9,68.9z M26.9,63.9c0,0.5,0,1,0,1.5c0,0.5,0,0.9,0,1.2
		c0,0.4,0,0.7-0.1,0.9c0,0.2-0.1,0.4-0.1,0.6c-0.1,0.1-0.2,0.2-0.3,0.3c-0.1,0-0.2,0-0.3,0c-0.1,0-0.2,0-0.3,0c-0.1,0-0.2,0-0.2,0
		c0,0-0.1,0.1-0.1,0.1c0,0.1,0,0.1,0.1,0.1c0.1,0,0.1,0,0.2,0c0.2,0,0.4,0,0.6,0c0.2,0,0.4,0,0.6,0c0.2,0,0.4,0,0.5,0
		c0.2,0,0.3,0,0.4,0c0.2,0,0.4,0,0.6,0c0.3,0,0.6,0,0.9,0c0.3,0,0.7,0,1.1,0c0.1,0,0.2,0,0.2,0c0.1,0,0.1-0.1,0.1-0.1
		c0,0,0-0.1-0.1-0.1c0,0-0.1,0-0.2,0c-0.1,0-0.2,0-0.3,0c-0.1,0-0.2,0-0.3,0c-0.1,0-0.2,0-0.3,0c-0.2,0-0.3-0.1-0.4-0.1
		c-0.1-0.1-0.2-0.2-0.2-0.3c0-0.1-0.1-0.2-0.1-0.4c0-0.2,0-0.5,0-0.9c0-0.4,0-0.8,0-1.2c0-0.5,0-1,0-1.5v-2.9c0-0.5,0-0.9,0-1.3
		c0-0.4,0-0.7,0-0.9c0-0.2,0-0.4,0-0.6c0-0.2,0-0.3,0-0.4c0-0.1,0-0.2,0-0.3c0-0.3,0.1-0.5,0.2-0.7c0.1-0.1,0.2-0.2,0.5-0.3
		c0.1,0,0.2,0,0.3,0c0.1,0,0.2,0,0.2,0c0.1,0,0.1,0,0.2,0c0,0,0.1-0.1,0.1-0.1c0-0.1,0-0.1-0.1-0.1c-0.1,0-0.1,0-0.3,0
		c-0.2,0-0.3,0-0.5,0c-0.2,0-0.4,0-0.6,0c-0.2,0-0.4,0-0.5,0c-0.2,0-0.3,0-0.4,0c-0.1,0-0.3,0-0.5,0c-0.2,0-0.4,0-0.6,0
		c-0.2,0-0.4,0-0.6,0c-0.2,0-0.4,0-0.5,0c-0.1,0-0.2,0-0.3,0c-0.1,0-0.1,0.1-0.1,0.1c0,0.1,0,0.1,0.1,0.1c0,0,0.1,0,0.2,0
		c0.1,0,0.2,0,0.3,0c0.1,0,0.2,0,0.3,0.1c0.2,0,0.3,0.1,0.4,0.3c0.1,0.1,0.1,0.4,0.2,0.6c0,0.1,0,0.2,0,0.3c0,0.1,0,0.3,0,0.4
		c0,0.2,0,0.4,0,0.6c0,0.2,0,0.5,0,0.9c0,0.4,0,0.8,0,1.3V63.9L26.9,63.9z M7.8,67.9c0.1,0.3,0.2,0.5,0.3,0.6
		c0.1,0.1,0.1,0.3,0.2,0.3c0.1,0.1,0.1,0.1,0.2,0.1c0.1,0,0.1,0,0.2-0.1c0.1-0.1,0.1-0.2,0.2-0.4C9,68.3,9.1,68,9.2,67.7
		c0.1-0.3,0.3-0.7,0.5-1.1c0.2-0.5,0.5-1.1,0.7-1.7c0.3-0.7,0.6-1.4,1-2.2c0.2-0.4,0.3-0.8,0.5-1.1c0.1-0.3,0.3-0.6,0.4-0.9
		c0.1-0.3,0.2-0.6,0.4-0.8c0.1-0.3,0.2-0.5,0.4-0.8c0.1-0.3,0.2-0.6,0.4-0.9c0.1-0.4,0.3-0.6,0.4-0.8c0.1-0.2,0.2-0.4,0.3-0.5
		c0.1-0.1,0.2-0.2,0.2-0.2c0.1-0.1,0.2-0.1,0.3-0.1c0.1,0,0.2,0,0.3-0.1c0.1,0,0.2,0,0.2,0c0.1,0,0.1,0,0.2,0c0,0,0.1-0.1,0.1-0.1
		c0-0.1,0-0.1-0.1-0.1c-0.1,0-0.1,0-0.3,0c-0.1,0-0.3,0-0.4,0c-0.1,0-0.3,0-0.4,0c-0.1,0-0.3,0-0.4,0c-0.1,0-0.2,0-0.3,0
		c-0.1,0-0.2,0-0.4,0c-0.2,0-0.4,0-0.6,0c-0.2,0-0.5,0-0.8,0c-0.2,0-0.3,0-0.4,0c-0.1,0-0.1,0.1-0.1,0.1c0,0.1,0,0.1,0.1,0.1
		c0.1,0,0.1,0,0.2,0c0.1,0,0.2,0,0.3,0c0.1,0,0.2,0,0.3,0.1c0.1,0,0.1,0.1,0.2,0.1c0,0.1,0.1,0.1,0.1,0.2c0,0.1,0,0.2,0,0.3
		c0,0.1-0.1,0.2-0.1,0.3c-0.1,0.2-0.1,0.4-0.3,0.7c-0.1,0.3-0.3,0.7-0.4,1.1c-0.2,0.4-0.3,0.9-0.5,1.3c-0.2,0.5-0.4,1-0.6,1.5
		c-0.2,0.5-0.4,1-0.6,1.4c-0.2,0.5-0.4,0.9-0.5,1.3c-0.2,0.4-0.3,0.7-0.4,1H9l-2.9-7.6c-0.1-0.3-0.2-0.6-0.3-0.8
		c-0.1-0.2-0.1-0.4-0.1-0.5c0-0.1,0-0.1,0-0.2c0-0.1,0.1-0.1,0.1-0.1c0.1-0.1,0.2-0.1,0.3-0.1c0.1,0,0.2,0,0.4,0c0.1,0,0.1,0,0.2,0
		c0,0,0.1-0.1,0.1-0.1c0-0.1,0-0.1-0.1-0.1c-0.1,0-0.2,0-0.3,0c-0.3,0-0.5,0-0.8,0c-0.3,0-0.5,0-0.7,0c-0.2,0-0.4,0-0.5,0
		c-0.2,0-0.4,0-0.7,0c-0.3,0-0.5,0-0.8,0c-0.3,0-0.6,0-0.9,0c-0.1,0-0.2,0-0.3,0c-0.1,0-0.1,0.1-0.1,0.1c0,0,0,0.1,0,0.1
		c0,0,0.1,0,0.2,0c0.1,0,0.2,0,0.3,0c0.1,0,0.2,0,0.4,0.1c0.2,0.1,0.4,0.1,0.5,0.2C3,56.7,3.1,56.9,3.3,57c0.1,0.2,0.2,0.4,0.4,0.7
		L7.8,67.9L7.8,67.9z M184.7,68.3c0.1,0.2,0.1,0.4,0.2,0.5c0.1,0.1,0.1,0.1,0.2,0.1c0.1,0,0.1,0,0.2-0.1c0-0.1,0.1-0.1,0.2-0.3
		c0.1-0.1,0.1-0.3,0.3-0.5c0.1-0.2,0.2-0.5,0.4-0.9c0.2-0.4,0.3-0.8,0.5-1.3c0.2-0.5,0.4-1,0.6-1.5c0.2-0.5,0.4-1,0.6-1.5
		c0.2-0.5,0.4-1,0.5-1.4c0.2-0.4,0.3-0.8,0.4-1.1c0.1-0.3,0.2-0.5,0.2-0.6h0l3.5,8.3c0.1,0.3,0.2,0.5,0.3,0.6
		c0.1,0.1,0.1,0.2,0.2,0.2c0.1,0,0.1,0,0.2-0.1c0,0,0.1-0.1,0.1-0.2c0-0.1,0.1-0.3,0.2-0.5c0.1-0.4,0.3-0.8,0.4-1.2
		c0.1-0.5,0.3-0.9,0.5-1.5c0.2-0.5,0.3-1,0.5-1.6c0.2-0.5,0.4-1.1,0.5-1.6c0.2-0.5,0.4-1.1,0.5-1.5c0.2-0.5,0.3-0.9,0.5-1.4
		c0.1-0.4,0.3-0.8,0.4-1.1c0.1-0.3,0.2-0.6,0.3-0.8c0.1-0.2,0.2-0.4,0.3-0.6c0.1-0.2,0.2-0.3,0.3-0.3c0.1,0,0.2-0.1,0.3-0.1
		c0.1,0,0.2,0,0.3,0c0.1,0,0.1,0,0.2,0c0,0,0.1-0.1,0.1-0.1c0-0.1,0-0.1-0.1-0.1c-0.1,0-0.1,0-0.2,0c-0.1,0-0.3,0-0.4,0
		c-0.1,0-0.3,0-0.4,0c-0.1,0-0.2,0-0.3,0c-0.1,0-0.2,0-0.2,0c-0.1,0-0.2,0-0.3,0c-0.2,0-0.4,0-0.6,0c-0.2,0-0.5,0-0.8,0
		c-0.1,0-0.2,0-0.3,0c-0.1,0-0.1,0.1-0.1,0.1c0,0,0,0.1,0.1,0.1c0,0,0.1,0,0.2,0c0.2,0,0.4,0,0.5,0.1c0.1,0,0.2,0.1,0.2,0.2
		c0,0.1,0.1,0.2,0.1,0.2c0,0.1,0,0.3,0,0.4c0,0.2-0.1,0.3-0.1,0.5c-0.1,0.3-0.2,0.7-0.3,1.2c-0.1,0.4-0.3,0.9-0.4,1.4
		c-0.1,0.5-0.3,1-0.4,1.5c-0.1,0.5-0.3,1-0.4,1.4c-0.1,0.4-0.2,0.8-0.3,1.2c-0.1,0.3-0.2,0.6-0.2,0.8h0l-3.5-8.4
		c-0.1-0.2-0.1-0.3-0.2-0.4c0-0.1-0.1-0.2-0.1-0.3c0-0.1-0.1-0.1-0.2-0.1c-0.1,0-0.1,0-0.2,0.1c-0.1,0.1-0.1,0.2-0.2,0.5l-3.2,8.7
		h-0.1c0-0.1-0.1-0.3-0.2-0.6c-0.1-0.3-0.2-0.6-0.3-1c-0.1-0.4-0.2-0.8-0.4-1.2c-0.1-0.4-0.3-0.9-0.4-1.3c-0.1-0.4-0.3-0.8-0.4-1.2
		c-0.1-0.4-0.2-0.7-0.3-1c-0.1-0.3-0.1-0.5-0.2-0.7c-0.1-0.4-0.2-0.7-0.3-1c-0.1-0.3-0.1-0.5-0.1-0.6c0-0.1,0-0.2,0-0.2
		c0-0.1,0.1-0.1,0.1-0.1c0.1,0,0.1-0.1,0.2-0.1c0.1,0,0.1,0,0.2,0c0.1,0,0.2,0,0.2,0c0.1,0,0.1-0.1,0.1-0.1c0-0.1-0.1-0.1-0.3-0.1
		c-0.3,0-0.6,0-0.9,0c-0.3,0-0.5,0-0.6,0c-0.2,0-0.3,0-0.3,0c0,0-0.1,0-0.2,0c-0.1,0-0.3,0-0.5,0c-0.2,0-0.4,0-0.6,0
		c-0.2,0-0.4,0-0.6,0c-0.1,0-0.2,0-0.3,0c-0.1,0-0.1,0.1-0.1,0.1c0,0.1,0,0.1,0.1,0.1c0,0,0.1,0,0.2,0c0.1,0,0.1,0,0.2,0
		c0.1,0,0.2,0,0.2,0c0.1,0,0.2,0.1,0.2,0.1c0.1,0.1,0.2,0.2,0.3,0.4c0.1,0.2,0.2,0.5,0.3,0.8L184.7,68.3L184.7,68.3z M143.5,60.9
		c0-0.5,0-0.9,0-1.3c0-0.4,0-0.7,0-0.9c0-0.2,0-0.4,0-0.6c0-0.2,0-0.3,0-0.4c0-0.1,0-0.2,0-0.3c0-0.3,0.1-0.5,0.2-0.7
		c0.1-0.1,0.2-0.2,0.5-0.3c0.1,0,0.2,0,0.3,0c0.1,0,0.2,0,0.3,0c0.1,0,0.2,0,0.2,0c0,0,0.1-0.1,0.1-0.1c0-0.1,0-0.1-0.1-0.1
		c-0.1,0-0.1,0-0.3,0c-0.2,0-0.4,0-0.6,0c-0.2,0-0.4,0-0.7,0c-0.2,0-0.4,0-0.6,0c-0.2,0-0.3,0-0.4,0c-0.1,0-0.3,0-0.4,0
		c-0.2,0-0.4,0-0.6,0c-0.2,0-0.4,0-0.6,0c-0.2,0-0.4,0-0.6,0c-0.1,0-0.2,0-0.3,0c-0.1,0-0.1,0.1-0.1,0.1c0,0.1,0,0.1,0.1,0.1
		c0,0,0.1,0,0.2,0c0.1,0,0.2,0,0.3,0c0.1,0,0.2,0,0.2,0c0.2,0,0.3,0.1,0.4,0.2c0.1,0.1,0.2,0.2,0.2,0.3c0,0.1,0.1,0.3,0.1,0.5
		c0,0.1,0,0.2,0,0.3c0,0.1,0,0.3,0,0.4c0,0.2,0,0.4,0,0.6c0,0.2,0,0.5,0,0.9c0,0.4,0,0.8,0,1.3v2.9c0,0.5,0,1,0,1.4
		c0,0.4,0,0.9,0,1.2c0,0.4,0,0.7-0.1,0.9c0,0.2,0,0.3-0.1,0.4c0,0.1-0.1,0.2-0.1,0.3c-0.1,0.1-0.1,0.1-0.3,0.2c-0.1,0-0.2,0-0.3,0
		c-0.1,0-0.2,0-0.3,0c-0.1,0-0.2,0-0.2,0c0,0-0.1,0.1-0.1,0.1c0,0.1,0,0.1,0.1,0.1c0.1,0,0.1,0,0.2,0c0.2,0,0.4,0,0.6,0
		c0.2,0,0.4,0,0.6,0c0.2,0,0.4,0,0.6,0c0.2,0,0.3,0,0.4,0c0.2,0,0.4,0,0.7,0c0.2,0,0.4,0,0.7,0c0.2,0,0.5,0,0.7,0c0.4,0,0.8,0,1.2,0
		c0.5,0,1,0,1.6,0c0.2,0,0.4,0,0.5,0c0.1,0,0.2,0,0.3-0.1c0.1,0,0.1-0.1,0.2-0.1c0-0.1,0.1-0.1,0.1-0.2c0-0.1,0.1-0.2,0.1-0.4
		c0-0.1,0-0.3,0.1-0.5c0-0.2,0-0.3,0.1-0.5c0-0.1,0-0.3,0-0.4c0-0.1,0-0.2,0-0.2c0-0.1,0-0.2,0-0.2c0,0-0.1-0.1-0.1-0.1
		c-0.1,0-0.1,0-0.1,0.1c0,0,0,0.1,0,0.2c0,0.1,0,0.2-0.1,0.4c0,0.1-0.1,0.2-0.2,0.4c-0.1,0.1-0.1,0.2-0.2,0.3
		c-0.1,0.1-0.3,0.3-0.5,0.3c-0.2,0.1-0.4,0.1-0.6,0.1c-0.2,0-0.5,0-0.8,0c-0.4,0-0.8,0-1,0c-0.3,0-0.5-0.1-0.6-0.1
		c-0.1-0.1-0.3-0.1-0.4-0.2c-0.1-0.1-0.2-0.3-0.2-0.6c0-0.3-0.1-0.7-0.1-1.2c0-0.5,0-1.1,0-1.8V60.9L143.5,60.9z M93.1,65.8l0.8,2.1
		c0,0.1,0,0.2,0,0.3c0,0.1-0.1,0.1-0.1,0.1c-0.1,0-0.1,0-0.2,0c0,0-0.1,0.1-0.1,0.1c0,0.1,0,0.1,0.1,0.1c0.1,0,0.2,0,0.4,0
		c0.4,0,0.9,0,1.3,0c0.4,0,0.8,0,1.1,0c0.3,0,0.6,0,0.8,0c0.2,0,0.4,0,0.5,0c0.1,0,0.2,0,0.2,0c0,0,0.1-0.1,0.1-0.1
		c0-0.1,0-0.1-0.1-0.1c0,0-0.1,0-0.2,0c-0.1,0-0.2,0-0.3,0c-0.1,0-0.2,0-0.4-0.1c-0.1,0-0.2-0.1-0.3-0.1c-0.1-0.1-0.2-0.1-0.3-0.3
		c-0.1-0.1-0.3-0.3-0.4-0.5c-0.1-0.2-0.3-0.5-0.4-0.9c-0.1-0.3-0.3-0.7-0.5-1.1c-0.2-0.4-0.4-0.9-0.6-1.4c-0.2-0.5-0.4-1-0.6-1.6
		c-0.2-0.5-0.4-1.1-0.6-1.6c-0.2-0.5-0.4-1-0.6-1.5c-0.2-0.5-0.4-0.9-0.5-1.3c-0.2-0.4-0.3-0.7-0.4-1c-0.1-0.3-0.2-0.5-0.2-0.6
		c-0.1-0.2-0.2-0.3-0.2-0.4c-0.1-0.1-0.1-0.1-0.2-0.1c-0.1,0-0.2,0-0.2,0.2c-0.1,0.1-0.1,0.3-0.2,0.5l-4.2,10.5
		c-0.1,0.3-0.2,0.5-0.3,0.7c-0.1,0.2-0.3,0.4-0.4,0.5c-0.2,0.1-0.4,0.2-0.6,0.2c-0.1,0-0.2,0-0.3,0c-0.1,0-0.2,0-0.3,0
		c-0.1,0-0.1,0-0.1,0c0,0,0,0.1,0,0.1c0,0.1,0,0.1,0.1,0.1c0,0,0.1,0,0.2,0c0.2,0,0.4,0,0.6,0c0.2,0,0.4,0,0.6,0c0.2,0,0.3,0,0.5,0
		c0.1,0,0.2,0,0.3,0c0.2,0,0.4,0,0.6,0c0.2,0,0.4,0,0.6,0c0.2,0,0.4,0,0.6,0c0.1,0,0.2,0,0.2,0c0,0,0.1-0.1,0.1-0.1c0,0,0-0.1,0-0.1
		c0,0-0.1,0-0.2,0H88c-0.3,0-0.4,0-0.5-0.1c-0.1-0.1-0.1-0.2-0.1-0.4c0-0.1,0-0.2,0-0.3l0,0c0,0,1.1-3.3,4.6-4.6L93.1,65.8
		L93.1,65.8L93.1,65.8z M88.5,64.5L88.5,64.5c0-0.1,0-0.1,0-0.1l0.8-2.2l1.1-2.9c0,0,0-0.1,0-0.1c0,0,0,0,0.1-0.1c0,0,0,0,0.1,0.1
		c0,0,0,0.1,0,0.1l0.9,2.6h0l0.4,1C91.6,62.9,90,63,88.5,64.5L88.5,64.5L88.5,64.5z M166.8,65.8l0.8,2.1c0,0.1,0,0.2,0,0.3
		c0,0.1-0.1,0.1-0.1,0.1c-0.1,0-0.1,0-0.2,0c0,0-0.1,0.1-0.1,0.1c0,0.1,0,0.1,0.1,0.1c0.1,0,0.2,0,0.4,0c0.4,0,0.9,0,1.3,0
		c0.4,0,0.8,0,1.1,0c0.3,0,0.6,0,0.8,0c0.2,0,0.4,0,0.5,0c0.1,0,0.2,0,0.2,0c0,0,0.1-0.1,0.1-0.1c0-0.1,0-0.1-0.1-0.1
		c0,0-0.1,0-0.2,0c-0.1,0-0.2,0-0.3,0c-0.1,0-0.2,0-0.4-0.1c-0.1,0-0.2-0.1-0.3-0.1c-0.1-0.1-0.2-0.1-0.3-0.3
		c-0.1-0.1-0.3-0.3-0.4-0.5c-0.1-0.2-0.3-0.5-0.4-0.9c-0.1-0.3-0.3-0.7-0.5-1.1c-0.2-0.4-0.4-0.9-0.6-1.4c-0.2-0.5-0.4-1-0.6-1.6
		c-0.2-0.5-0.4-1.1-0.6-1.6c-0.2-0.5-0.4-1-0.6-1.5c-0.2-0.5-0.4-0.9-0.5-1.3c-0.2-0.4-0.3-0.7-0.4-1c-0.1-0.3-0.2-0.5-0.2-0.6
		c-0.1-0.2-0.2-0.3-0.2-0.4c-0.1-0.1-0.1-0.1-0.2-0.1c-0.1,0-0.2,0-0.2,0.2c-0.1,0.1-0.1,0.3-0.2,0.5l-4.2,10.5
		c-0.1,0.3-0.2,0.5-0.3,0.7c-0.1,0.2-0.3,0.4-0.4,0.5c-0.2,0.1-0.4,0.2-0.6,0.2c-0.1,0-0.2,0-0.3,0c-0.1,0-0.2,0-0.3,0
		c-0.1,0-0.1,0-0.1,0c0,0,0,0.1,0,0.1c0,0.1,0,0.1,0.1,0.1c0.1,0,0.1,0,0.2,0c0.2,0,0.4,0,0.6,0c0.2,0,0.4,0,0.6,0
		c0.2,0,0.3,0,0.5,0c0.1,0,0.2,0,0.3,0c0.2,0,0.4,0,0.6,0c0.2,0,0.4,0,0.6,0c0.2,0,0.4,0,0.6,0c0.1,0,0.2,0,0.2,0
		c0,0,0.1-0.1,0.1-0.1c0,0,0-0.1,0-0.1c0,0-0.1,0-0.2,0h-0.2c-0.3,0-0.4,0-0.5-0.1c-0.1-0.1-0.1-0.2-0.1-0.4c0-0.1,0-0.2,0-0.3l0,0
		c0,0,1.1-3.3,4.6-4.6L166.8,65.8L166.8,65.8L166.8,65.8z M162.3,64.5L162.3,64.5c0-0.1,0-0.1,0-0.1l0.8-2.2l1.1-2.9
		c0,0,0-0.1,0-0.1c0,0,0,0,0.1-0.1c0,0,0,0,0.1,0.1c0,0,0,0.1,0,0.1l0.9,2.6h0l0.4,1C165.4,62.9,163.8,63,162.3,64.5L162.3,64.5
		L162.3,64.5z"/>
</g>
</svg>
